999
"DXF R12 Output" (www.mydxf.blogspot.com)
 0 
SECTION
 2 
HEADER
 9 
$ACADVER
 1 
AC1009
 9 
$EXTMIN
 10 
 0 
 20 
 0 
 9 
$EXTMAX
 10 
 8.5 
 20 
 11 
 0 
ENDSEC
 0 
SECTION
 2 
ENTITIES
0
POLYLINE
8
Layer 1
62
7
70
0
10
0.000000
20
0.000000
66
1
0
VERTEX
8
Layer 1
10
-0.000004
20
2.969476
70
0
0
VERTEX
8
Layer 1
10
-0.000004
20
5.932806
70
0
0
VERTEX
8
Layer 1
10
0.931328
20
5.932806
70
0
0
VERTEX
8
Layer 1
10
1.862660
20
5.932806
70
0
0
VERTEX
8
Layer 1
10
1.862660
20
4.747474
70
0
0
VERTEX
8
Layer 1
10
1.862660
20
3.562142
70
0
0
VERTEX
8
Layer 1
10
3.640658
20
3.562142
70
0
0
VERTEX
8
Layer 1
10
5.418655
20
3.562142
70
0
0
VERTEX
8
Layer 1
10
5.418655
20
2.927143
70
0
0
VERTEX
8
Layer 1
10
5.418655
20
2.292144
70
0
0
VERTEX
8
Layer 1
10
3.640658
20
2.292144
70
0
0
VERTEX
8
Layer 1
10
1.862660
20
2.292144
70
0
0
VERTEX
8
Layer 1
10
1.862660
20
1.149145
70
0
0
VERTEX
8
Layer 1
10
1.862660
20
0.006147
70
0
0
VERTEX
8
Layer 1
10
0.931328
20
0.006147
70
0
0
VERTEX
8
Layer 1
10
-0.000004
20
0.006147
70
0
0
VERTEX
8
Layer 1
10
-0.000004
20
2.969476
70
0
0
SEQEND
8
Layer 1
0
POLYLINE
8
Layer 1
62
7
70
0
10
0.000000
20
0.000000
66
1
0
VERTEX
8
Layer 1
10
6.688654
20
2.972342
70
0
0
VERTEX
8
Layer 1
10
6.688654
20
5.938535
70
0
0
VERTEX
8
Layer 1
10
7.598819
20
5.914503
70
0
0
VERTEX
8
Layer 1
10
8.508985
20
5.890471
70
0
0
VERTEX
8
Layer 1
10
8.532541
20
4.726305
70
0
0
VERTEX
8
Layer 1
10
8.556096
20
3.562140
70
0
0
VERTEX
8
Layer 1
10
10.289372
20
3.562140
70
0
0
VERTEX
8
Layer 1
10
12.022647
20
3.562140
70
0
0
VERTEX
8
Layer 1
10
12.022647
20
2.928859
70
0
0
VERTEX
8
Layer 1
10
12.022647
20
2.295577
70
0
0
VERTEX
8
Layer 1
10
10.277550
20
2.272694
70
0
0
VERTEX
8
Layer 1
10
8.532453
20
2.249810
70
0
0
VERTEX
8
Layer 1
10
8.546050
20
1.127978
70
0
0
VERTEX
8
Layer 1
10
8.559647
20
0.006146
70
0
0
VERTEX
8
Layer 1
10
7.624151
20
0.006146
70
0
0
VERTEX
8
Layer 1
10
6.688654
20
0.006146
70
0
0
VERTEX
8
Layer 1
10
6.688654
20
2.972342
70
0
0
SEQEND
8
Layer 1
0
POLYLINE
8
Layer 1
62
7
70
0
10
0.000000
20
0.000000
66
1
0
VERTEX
8
Layer 1
10
13.377312
20
2.966412
70
0
0
VERTEX
8
Layer 1
10
13.377312
20
5.932806
70
0
0
VERTEX
8
Layer 1
10
14.202811
20
5.932092
70
0
0
VERTEX
8
Layer 1
10
15.028310
20
5.931377
70
0
0
VERTEX
8
Layer 1
10
16.843209
20
4.027086
70
0
0
VERTEX
8
Layer 1
10
18.727040
20
2.122794
70
0
0
VERTEX
8
Layer 1
10
18.795972
20
4.027791
70
0
0
VERTEX
8
Layer 1
10
18.795972
20
5.932789
70
0
0
VERTEX
8
Layer 1
10
19.600304
20
5.932789
70
0
0
VERTEX
8
Layer 1
10
20.404637
20
5.932789
70
0
0
VERTEX
8
Layer 1
10
20.404637
20
2.969459
70
0
0
VERTEX
8
Layer 1
10
20.404637
20
0.006130
70
0
0
VERTEX
8
Layer 1
10
19.564615
20
0.006130
70
0
0
VERTEX
8
Layer 1
10
18.724594
20
0.006130
70
0
0
VERTEX
8
Layer 1
10
16.923796
20
1.866749
70
0
0
VERTEX
8
Layer 1
10
15.091975
20
3.696346
70
0
0
VERTEX
8
Layer 1
10
15.044632
20
1.856893
70
0
0
VERTEX
8
Layer 1
10
15.028309
20
0.048480
70
0
0
VERTEX
8
Layer 1
10
14.202810
20
0.024247
70
0
0
VERTEX
8
Layer 1
10
13.377311
20
0.000014
70
0
0
VERTEX
8
Layer 1
10
13.377312
20
2.966412
70
0
0
SEQEND
8
Layer 1
 0 
ENDSEC
 0 
EOF