<?xml version="1.0" encoding="UTF-8" standalone="no"?>
<!-- Created with Inkscape (http://www.inkscape.org/) -->

<svg
   version="1.1"
   id="svg1"
   width="77.120003"
   height="22.444832"
   viewBox="0 0 77.120003 22.444832"
   xmlns="http://www.w3.org/2000/svg"
   xmlns:svg="http://www.w3.org/2000/svg">
  <defs
     id="defs1" />
  <g
     id="g1"
     transform="translate(-8.4512815,-35.637836)">
    <path
       style="fill:#000000"
       d="m 8.451282,46.859487 v -11.2 h 3.52 3.52 v 4.48 4.48 h 6.72 6.72 v 2.4 2.4 h -6.72 -6.72 v 4.32 4.32 h -3.52 -3.52 z m 25.28,-0.01083 V 35.637835 l 3.44,0.09083 3.44,0.09083 0.08903,4.4 0.08903,4.4 h 6.55097 6.55097 v 2.393508 2.393507 l -6.59565,0.08649 -6.59565,0.08649 0.05139,4.24 0.05139,4.24 h -3.535737 -3.535743 z m 25.28,0.02241 v -11.21158 l 3.12,0.0027 3.12,0.0027 6.859468,7.197332 c 3.772708,3.958533 6.976708,7.197332 7.12,7.197332 0.143293,0 0.260532,-3.24 0.260532,-7.2 v -7.2 h 3.04 3.04 v 11.2 11.2 h -3.174887 -3.174887 l -6.806175,-7.032272 c -3.743396,-3.867749 -6.858937,-6.979509 -6.923425,-6.915021 -0.06449,0.06449 -0.14501,3.19301 -0.178938,6.952272 l -0.06169,6.834957 -3.12,0.09159 -3.12,0.09159 z"
       id="path1" />
  </g>
</svg>
