  0
SECTION
  2
HEADER
  9
$ACADVER
  1
AC1006
  9
$EXTMIN
 10
0.000000
 20
0.000000
 30
0.000000
  9
$EXTMAX
 10
241.000000
 20
70.000000
 30
0.000000
  0
ENDSEC
  0
SECTION
  2
ENTITIES
  0
POLYLINE
  8
0
 66
1
 70
1
  0
VERTEX
  8
0
 10
0.000000
 20
35.000000
 42
0.000000
  0
VERTEX
  8
0
 10
0.000000
 20
0.000000
 42
0.000000
  0
VERTEX
  8
0
 10
11.000000
 20
0.000000
 42
0.000000
  0
VERTEX
  8
0
 10
22.000000
 20
0.000000
 42
0.000000
  0
VERTEX
  8
0
 10
22.000000
 20
13.500000
 42
0.000000
  0
VERTEX
  8
0
 10
22.000000
 20
27.000000
 42
0.000000
  0
VERTEX
  8
0
 10
43.000000
 20
27.000000
 42
0.000000
  0
VERTEX
  8
0
 10
64.000000
 20
27.000000
 42
0.000000
  0
VERTEX
  8
0
 10
64.000000
 20
34.500000
 42
0.000000
  0
VERTEX
  8
0
 10
64.000000
 20
42.000000
 42
0.000000
  0
VERTEX
  8
0
 10
43.000000
 20
42.000000
 42
0.000000
  0
VERTEX
  8
0
 10
22.000000
 20
42.000000
 42
0.000000
  0
VERTEX
  8
0
 10
22.000000
 20
56.000000
 42
0.000000
  0
VERTEX
  8
0
 10
22.000000
 20
70.000000
 42
0.000000
  0
VERTEX
  8
0
 10
11.000000
 20
70.000000
 42
0.000000
  0
VERTEX
  8
0
 10
0.000000
 20
70.000000
 42
0.000000
  0
SEQEND
  0
POLYLINE
  8
0
 66
1
 70
1
  0
VERTEX
  8
0
 10
79.000000
 20
35.000000
 42
0.000000
  0
VERTEX
  8
0
 10
79.000000
 20
0.000000
 42
0.000000
  0
VERTEX
  8
0
 10
90.000000
 20
0.000000
 42
0.000000
  0
VERTEX
  8
0
 10
101.000000
 20
0.000000
 42
0.000000
  0
VERTEX
  8
0
 10
101.000000
 20
13.500000
 42
0.000000
  0
VERTEX
  8
0
 10
101.000000
 20
27.000000
 42
0.000000
  0
VERTEX
  8
0
 10
121.500000
 20
27.000000
 42
0.000000
  0
VERTEX
  8
0
 10
142.000000
 20
27.000000
 42
0.000000
  0
VERTEX
  8
0
 10
142.000000
 20
34.500000
 42
0.000000
  0
VERTEX
  8
0
 10
142.000000
 20
42.000000
 42
0.000000
  0
VERTEX
  8
0
 10
121.500000
 20
42.000000
 42
0.000000
  0
VERTEX
  8
0
 10
101.000000
 20
42.000000
 42
0.000000
  0
VERTEX
  8
0
 10
101.000000
 20
55.383369
 42
0.008142
  0
VERTEX
  8
0
 10
100.830834
 20
65.771006
 42
0.177916
  0
VERTEX
  8
0
 10
99.707557
 20
68.545286
 42
0.199997
  0
VERTEX
  8
0
 10
97.096764
 20
69.771686
 42
0.010701
  0
VERTEX
  8
0
 10
87.750000
 20
69.986345
 42
0.000000
  0
VERTEX
  8
0
 10
79.000000
 20
70.000000
 42
0.000000
  0
SEQEND
  0
POLYLINE
  8
0
 66
1
 70
1
  0
VERTEX
  8
0
 10
158.000000
 20
35.000000
 42
0.000000
  0
VERTEX
  8
0
 10
158.000000
 20
0.000000
 42
0.000000
  0
VERTEX
  8
0
 10
165.750000
 20
0.013655
 42
0.019258
  0
VERTEX
  8
0
 10
174.297454
 20
0.358075
 42
0.250739
  0
VERTEX
  8
0
 10
176.886747
 20
2.018214
 42
0.121307
  0
VERTEX
  8
0
 10
177.904334
 20
5.725544
 42
0.003424
  0
VERTEX
  8
0
 10
178.230437
 20
22.361515
 42
0.000000
  0
VERTEX
  8
0
 10
178.500000
 20
43.500000
 42
0.000000
  0
VERTEX
  8
0
 10
199.854241
 20
21.750000
 42
0.000000
  0
VERTEX
  8
0
 10
221.208481
 20
0.000000
 42
0.000000
  0
VERTEX
  8
0
 10
231.104241
 20
0.000000
 42
0.000000
  0
VERTEX
  8
0
 10
241.000000
 20
0.000000
 42
0.000000
  0
VERTEX
  8
0
 10
241.000000
 20
35.000000
 42
0.000000
  0
VERTEX
  8
0
 10
241.000000
 20
70.000000
 42
0.000000
  0
VERTEX
  8
0
 10
231.500000
 20
70.000000
 42
0.000000
  0
VERTEX
  8
0
 10
222.000000
 20
70.000000
 42
0.000000
  0
VERTEX
  8
0
 10
222.000000
 20
48.559017
 42
-0.003506
  0
VERTEX
  8
0
 10
221.936368
 20
39.483117
 42
-0.007990
  0
VERTEX
  8
0
 10
221.730842
 20
32.634759
 42
-0.003666
  0
VERTEX
  8
0
 10
221.443956
 20
27.258740
 42
-0.243810
  0
VERTEX
  8
0
 10
220.984526
 20
26.490437
 42
-0.346298
  0
VERTEX
  8
0
 10
219.839541
 20
26.620572
 42
-0.000841
  0
VERTEX
  8
0
 10
207.308369
 20
39.056892
 42
-0.005143
  0
VERTEX
  8
0
 10
194.609605
 20
51.964861
 42
-0.005632
  0
VERTEX
  8
0
 10
182.562696
 20
64.750000
 42
0.000000
  0
VERTEX
  8
0
 10
177.726316
 20
70.000000
 42
0.000000
  0
VERTEX
  8
0
 10
167.863158
 20
70.000000
 42
0.000000
  0
VERTEX
  8
0
 10
158.000000
 20
70.000000
 42
0.000000
  0
SEQEND
  0
ENDSEC
  0
EOF
